<?xml version="1.0" encoding="utf-8" standalone="no"?>
<!DOCTYPE svg PUBLIC "-//W3C//DTD SVG 1.1//EN"
  "http://www.w3.org/Graphics/SVG/1.1/DTD/svg11.dtd">
<svg xmlns:xlink="http://www.w3.org/1999/xlink" width="1440pt" height="720pt" viewBox="0 0 1440 720" xmlns="http://www.w3.org/2000/svg" version="1.1">
 <metadata>
  <rdf:RDF xmlns:dc="http://purl.org/dc/elements/1.1/" xmlns:cc="http://creativecommons.org/ns#" xmlns:rdf="http://www.w3.org/1999/02/22-rdf-syntax-ns#">
   <cc:Work>
    <dc:type rdf:resource="http://purl.org/dc/dcmitype/StillImage"/>
    <dc:date>2023-04-19T08:46:00.400080</dc:date>
    <dc:format>image/svg+xml</dc:format>
    <dc:creator>
     <cc:Agent>
      <dc:title>Matplotlib v3.5.3, https://matplotlib.org/</dc:title>
     </cc:Agent>
    </dc:creator>
   </cc:Work>
  </rdf:RDF>
 </metadata>
 <defs>
  <style type="text/css">*{stroke-linejoin: round; stroke-linecap: butt}</style>
 </defs>
 <g id="figure_1">
  <g id="patch_1">
   <path d="M 0 720 
L 1440 720 
L 1440 0 
L 0 0 
z
" style="fill: #ffffff"/>
  </g>
  <g id="axes_1">
   <g id="patch_2">
    <path d="M 180 338.4 
L 687.272727 338.4 
L 687.272727 86.4 
L 180 86.4 
z
" style="fill: #eaeaf2"/>
   </g>
   <g id="matplotlib.axis_1">
    <g id="xtick_1">
     <g id="line2d_1">
      <path d="M 203.057851 338.4 
L 203.057851 86.4 
" clip-path="url(#p31b616bbdb)" style="fill: none; stroke: #ffffff; stroke-width: 0.8; stroke-linecap: round"/>
     </g>
     <g id="text_1">
      <!-- 0 -->
      <g style="fill: #262626" transform="translate(200.277382 352.557812)scale(0.1 -0.1)">
       <defs>
        <path id="ArialMT-30" d="M 266 2259 
Q 266 3072 433 3567 
Q 600 4063 929 4331 
Q 1259 4600 1759 4600 
Q 2128 4600 2406 4451 
Q 2684 4303 2865 4023 
Q 3047 3744 3150 3342 
Q 3253 2941 3253 2259 
Q 3253 1453 3087 958 
Q 2922 463 2592 192 
Q 2263 -78 1759 -78 
Q 1097 -78 719 397 
Q 266 969 266 2259 
z
M 844 2259 
Q 844 1131 1108 757 
Q 1372 384 1759 384 
Q 2147 384 2411 759 
Q 2675 1134 2675 2259 
Q 2675 3391 2411 3762 
Q 2147 4134 1753 4134 
Q 1366 4134 1134 3806 
Q 844 3388 844 2259 
z
" transform="scale(0.015625)"/>
       </defs>
       <use xlink:href="#ArialMT-30"/>
      </g>
     </g>
    </g>
    <g id="xtick_2">
     <g id="line2d_2">
      <path d="M 274.26801 338.4 
L 274.26801 86.4 
" clip-path="url(#p31b616bbdb)" style="fill: none; stroke: #ffffff; stroke-width: 0.8; stroke-linecap: round"/>
     </g>
     <g id="text_2">
      <!-- 500 -->
      <g style="fill: #262626" transform="translate(265.926604 352.557812)scale(0.1 -0.1)">
       <defs>
        <path id="ArialMT-35" d="M 266 1200 
L 856 1250 
Q 922 819 1161 601 
Q 1400 384 1738 384 
Q 2144 384 2425 690 
Q 2706 997 2706 1503 
Q 2706 1984 2436 2262 
Q 2166 2541 1728 2541 
Q 1456 2541 1237 2417 
Q 1019 2294 894 2097 
L 366 2166 
L 809 4519 
L 3088 4519 
L 3088 3981 
L 1259 3981 
L 1013 2750 
Q 1425 3038 1878 3038 
Q 2478 3038 2890 2622 
Q 3303 2206 3303 1553 
Q 3303 931 2941 478 
Q 2500 -78 1738 -78 
Q 1113 -78 717 272 
Q 322 622 266 1200 
z
" transform="scale(0.015625)"/>
       </defs>
       <use xlink:href="#ArialMT-35"/>
       <use xlink:href="#ArialMT-30" x="55.615234"/>
       <use xlink:href="#ArialMT-30" x="111.230469"/>
      </g>
     </g>
    </g>
    <g id="xtick_3">
     <g id="line2d_3">
      <path d="M 345.478169 338.4 
L 345.478169 86.4 
" clip-path="url(#p31b616bbdb)" style="fill: none; stroke: #ffffff; stroke-width: 0.8; stroke-linecap: round"/>
     </g>
     <g id="text_3">
      <!-- 1000 -->
      <g style="fill: #262626" transform="translate(334.356294 352.557812)scale(0.1 -0.1)">
       <defs>
        <path id="ArialMT-31" d="M 2384 0 
L 1822 0 
L 1822 3584 
Q 1619 3391 1289 3197 
Q 959 3003 697 2906 
L 697 3450 
Q 1169 3672 1522 3987 
Q 1875 4303 2022 4600 
L 2384 4600 
L 2384 0 
z
" transform="scale(0.015625)"/>
       </defs>
       <use xlink:href="#ArialMT-31"/>
       <use xlink:href="#ArialMT-30" x="55.615234"/>
       <use xlink:href="#ArialMT-30" x="111.230469"/>
       <use xlink:href="#ArialMT-30" x="166.845703"/>
      </g>
     </g>
    </g>
    <g id="xtick_4">
     <g id="line2d_4">
      <path d="M 416.688328 338.4 
L 416.688328 86.4 
" clip-path="url(#p31b616bbdb)" style="fill: none; stroke: #ffffff; stroke-width: 0.8; stroke-linecap: round"/>
     </g>
     <g id="text_4">
      <!-- 1500 -->
      <g style="fill: #262626" transform="translate(405.566453 352.557812)scale(0.1 -0.1)">
       <use xlink:href="#ArialMT-31"/>
       <use xlink:href="#ArialMT-35" x="55.615234"/>
       <use xlink:href="#ArialMT-30" x="111.230469"/>
       <use xlink:href="#ArialMT-30" x="166.845703"/>
      </g>
     </g>
    </g>
    <g id="xtick_5">
     <g id="line2d_5">
      <path d="M 487.898487 338.4 
L 487.898487 86.4 
" clip-path="url(#p31b616bbdb)" style="fill: none; stroke: #ffffff; stroke-width: 0.8; stroke-linecap: round"/>
     </g>
     <g id="text_5">
      <!-- 2000 -->
      <g style="fill: #262626" transform="translate(476.776612 352.557812)scale(0.1 -0.1)">
       <defs>
        <path id="ArialMT-32" d="M 3222 541 
L 3222 0 
L 194 0 
Q 188 203 259 391 
Q 375 700 629 1000 
Q 884 1300 1366 1694 
Q 2113 2306 2375 2664 
Q 2638 3022 2638 3341 
Q 2638 3675 2398 3904 
Q 2159 4134 1775 4134 
Q 1369 4134 1125 3890 
Q 881 3647 878 3216 
L 300 3275 
Q 359 3922 746 4261 
Q 1134 4600 1788 4600 
Q 2447 4600 2831 4234 
Q 3216 3869 3216 3328 
Q 3216 3053 3103 2787 
Q 2991 2522 2730 2228 
Q 2469 1934 1863 1422 
Q 1356 997 1212 845 
Q 1069 694 975 541 
L 3222 541 
z
" transform="scale(0.015625)"/>
       </defs>
       <use xlink:href="#ArialMT-32"/>
       <use xlink:href="#ArialMT-30" x="55.615234"/>
       <use xlink:href="#ArialMT-30" x="111.230469"/>
       <use xlink:href="#ArialMT-30" x="166.845703"/>
      </g>
     </g>
    </g>
    <g id="xtick_6">
     <g id="line2d_6">
      <path d="M 559.108647 338.4 
L 559.108647 86.4 
" clip-path="url(#p31b616bbdb)" style="fill: none; stroke: #ffffff; stroke-width: 0.8; stroke-linecap: round"/>
     </g>
     <g id="text_6">
      <!-- 2500 -->
      <g style="fill: #262626" transform="translate(547.986772 352.557812)scale(0.1 -0.1)">
       <use xlink:href="#ArialMT-32"/>
       <use xlink:href="#ArialMT-35" x="55.615234"/>
       <use xlink:href="#ArialMT-30" x="111.230469"/>
       <use xlink:href="#ArialMT-30" x="166.845703"/>
      </g>
     </g>
    </g>
    <g id="xtick_7">
     <g id="line2d_7">
      <path d="M 630.318806 338.4 
L 630.318806 86.4 
" clip-path="url(#p31b616bbdb)" style="fill: none; stroke: #ffffff; stroke-width: 0.8; stroke-linecap: round"/>
     </g>
     <g id="text_7">
      <!-- 3000 -->
      <g style="fill: #262626" transform="translate(619.196931 352.557812)scale(0.1 -0.1)">
       <defs>
        <path id="ArialMT-33" d="M 269 1209 
L 831 1284 
Q 928 806 1161 595 
Q 1394 384 1728 384 
Q 2125 384 2398 659 
Q 2672 934 2672 1341 
Q 2672 1728 2419 1979 
Q 2166 2231 1775 2231 
Q 1616 2231 1378 2169 
L 1441 2663 
Q 1497 2656 1531 2656 
Q 1891 2656 2178 2843 
Q 2466 3031 2466 3422 
Q 2466 3731 2256 3934 
Q 2047 4138 1716 4138 
Q 1388 4138 1169 3931 
Q 950 3725 888 3313 
L 325 3413 
Q 428 3978 793 4289 
Q 1159 4600 1703 4600 
Q 2078 4600 2393 4439 
Q 2709 4278 2876 4000 
Q 3044 3722 3044 3409 
Q 3044 3113 2884 2869 
Q 2725 2625 2413 2481 
Q 2819 2388 3044 2092 
Q 3269 1797 3269 1353 
Q 3269 753 2831 336 
Q 2394 -81 1725 -81 
Q 1122 -81 723 278 
Q 325 638 269 1209 
z
" transform="scale(0.015625)"/>
       </defs>
       <use xlink:href="#ArialMT-33"/>
       <use xlink:href="#ArialMT-30" x="55.615234"/>
       <use xlink:href="#ArialMT-30" x="111.230469"/>
       <use xlink:href="#ArialMT-30" x="166.845703"/>
      </g>
     </g>
    </g>
    <g id="text_8">
     <!-- bins -->
     <g style="fill: #262626" transform="translate(424.464489 365.703125)scale(0.1 -0.1)">
      <defs>
       <path id="ArialMT-62" d="M 941 0 
L 419 0 
L 419 4581 
L 981 4581 
L 981 2947 
Q 1338 3394 1891 3394 
Q 2197 3394 2470 3270 
Q 2744 3147 2920 2923 
Q 3097 2700 3197 2384 
Q 3297 2069 3297 1709 
Q 3297 856 2875 390 
Q 2453 -75 1863 -75 
Q 1275 -75 941 416 
L 941 0 
z
M 934 1684 
Q 934 1088 1097 822 
Q 1363 388 1816 388 
Q 2184 388 2453 708 
Q 2722 1028 2722 1663 
Q 2722 2313 2464 2622 
Q 2206 2931 1841 2931 
Q 1472 2931 1203 2611 
Q 934 2291 934 1684 
z
" transform="scale(0.015625)"/>
       <path id="ArialMT-69" d="M 425 3934 
L 425 4581 
L 988 4581 
L 988 3934 
L 425 3934 
z
M 425 0 
L 425 3319 
L 988 3319 
L 988 0 
L 425 0 
z
" transform="scale(0.015625)"/>
       <path id="ArialMT-6e" d="M 422 0 
L 422 3319 
L 928 3319 
L 928 2847 
Q 1294 3394 1984 3394 
Q 2284 3394 2536 3286 
Q 2788 3178 2913 3003 
Q 3038 2828 3088 2588 
Q 3119 2431 3119 2041 
L 3119 0 
L 2556 0 
L 2556 2019 
Q 2556 2363 2490 2533 
Q 2425 2703 2258 2804 
Q 2091 2906 1866 2906 
Q 1506 2906 1245 2678 
Q 984 2450 984 1813 
L 984 0 
L 422 0 
z
" transform="scale(0.015625)"/>
       <path id="ArialMT-73" d="M 197 991 
L 753 1078 
Q 800 744 1014 566 
Q 1228 388 1613 388 
Q 2000 388 2187 545 
Q 2375 703 2375 916 
Q 2375 1106 2209 1216 
Q 2094 1291 1634 1406 
Q 1016 1563 777 1677 
Q 538 1791 414 1992 
Q 291 2194 291 2438 
Q 291 2659 392 2848 
Q 494 3038 669 3163 
Q 800 3259 1026 3326 
Q 1253 3394 1513 3394 
Q 1903 3394 2198 3281 
Q 2494 3169 2634 2976 
Q 2775 2784 2828 2463 
L 2278 2388 
Q 2241 2644 2061 2787 
Q 1881 2931 1553 2931 
Q 1166 2931 1000 2803 
Q 834 2675 834 2503 
Q 834 2394 903 2306 
Q 972 2216 1119 2156 
Q 1203 2125 1616 2013 
Q 2213 1853 2448 1751 
Q 2684 1650 2818 1456 
Q 2953 1263 2953 975 
Q 2953 694 2789 445 
Q 2625 197 2315 61 
Q 2006 -75 1616 -75 
Q 969 -75 630 194 
Q 291 463 197 991 
z
" transform="scale(0.015625)"/>
      </defs>
      <use xlink:href="#ArialMT-62"/>
      <use xlink:href="#ArialMT-69" x="55.615234"/>
      <use xlink:href="#ArialMT-6e" x="77.832031"/>
      <use xlink:href="#ArialMT-73" x="133.447266"/>
     </g>
    </g>
   </g>
   <g id="matplotlib.axis_2">
    <g id="ytick_1">
     <g id="line2d_8">
      <path d="M 180 338.4 
L 687.272727 338.4 
" clip-path="url(#p31b616bbdb)" style="fill: none; stroke: #ffffff; stroke-width: 0.8; stroke-linecap: round"/>
     </g>
     <g id="text_9">
      <!-- 0 -->
      <g style="fill: #262626" transform="translate(167.439063 341.978906)scale(0.1 -0.1)">
       <use xlink:href="#ArialMT-30"/>
      </g>
     </g>
    </g>
    <g id="ytick_2">
     <g id="line2d_9">
      <path d="M 180 296.294737 
L 687.272727 296.294737 
" clip-path="url(#p31b616bbdb)" style="fill: none; stroke: #ffffff; stroke-width: 0.8; stroke-linecap: round"/>
     </g>
     <g id="text_10">
      <!-- 20 -->
      <g style="fill: #262626" transform="translate(161.878125 299.873643)scale(0.1 -0.1)">
       <use xlink:href="#ArialMT-32"/>
       <use xlink:href="#ArialMT-30" x="55.615234"/>
      </g>
     </g>
    </g>
    <g id="ytick_3">
     <g id="line2d_10">
      <path d="M 180 254.189474 
L 687.272727 254.189474 
" clip-path="url(#p31b616bbdb)" style="fill: none; stroke: #ffffff; stroke-width: 0.8; stroke-linecap: round"/>
     </g>
     <g id="text_11">
      <!-- 40 -->
      <g style="fill: #262626" transform="translate(161.878125 257.76838)scale(0.1 -0.1)">
       <defs>
        <path id="ArialMT-34" d="M 2069 0 
L 2069 1097 
L 81 1097 
L 81 1613 
L 2172 4581 
L 2631 4581 
L 2631 1613 
L 3250 1613 
L 3250 1097 
L 2631 1097 
L 2631 0 
L 2069 0 
z
M 2069 1613 
L 2069 3678 
L 634 1613 
L 2069 1613 
z
" transform="scale(0.015625)"/>
       </defs>
       <use xlink:href="#ArialMT-34"/>
       <use xlink:href="#ArialMT-30" x="55.615234"/>
      </g>
     </g>
    </g>
    <g id="ytick_4">
     <g id="line2d_11">
      <path d="M 180 212.084211 
L 687.272727 212.084211 
" clip-path="url(#p31b616bbdb)" style="fill: none; stroke: #ffffff; stroke-width: 0.8; stroke-linecap: round"/>
     </g>
     <g id="text_12">
      <!-- 60 -->
      <g style="fill: #262626" transform="translate(161.878125 215.663117)scale(0.1 -0.1)">
       <defs>
        <path id="ArialMT-36" d="M 3184 3459 
L 2625 3416 
Q 2550 3747 2413 3897 
Q 2184 4138 1850 4138 
Q 1581 4138 1378 3988 
Q 1113 3794 959 3422 
Q 806 3050 800 2363 
Q 1003 2672 1297 2822 
Q 1591 2972 1913 2972 
Q 2475 2972 2870 2558 
Q 3266 2144 3266 1488 
Q 3266 1056 3080 686 
Q 2894 316 2569 119 
Q 2244 -78 1831 -78 
Q 1128 -78 684 439 
Q 241 956 241 2144 
Q 241 3472 731 4075 
Q 1159 4600 1884 4600 
Q 2425 4600 2770 4297 
Q 3116 3994 3184 3459 
z
M 888 1484 
Q 888 1194 1011 928 
Q 1134 663 1356 523 
Q 1578 384 1822 384 
Q 2178 384 2434 671 
Q 2691 959 2691 1453 
Q 2691 1928 2437 2201 
Q 2184 2475 1800 2475 
Q 1419 2475 1153 2201 
Q 888 1928 888 1484 
z
" transform="scale(0.015625)"/>
       </defs>
       <use xlink:href="#ArialMT-36"/>
       <use xlink:href="#ArialMT-30" x="55.615234"/>
      </g>
     </g>
    </g>
    <g id="ytick_5">
     <g id="line2d_12">
      <path d="M 180 169.978947 
L 687.272727 169.978947 
" clip-path="url(#p31b616bbdb)" style="fill: none; stroke: #ffffff; stroke-width: 0.8; stroke-linecap: round"/>
     </g>
     <g id="text_13">
      <!-- 80 -->
      <g style="fill: #262626" transform="translate(161.878125 173.557854)scale(0.1 -0.1)">
       <defs>
        <path id="ArialMT-38" d="M 1131 2484 
Q 781 2613 612 2850 
Q 444 3088 444 3419 
Q 444 3919 803 4259 
Q 1163 4600 1759 4600 
Q 2359 4600 2725 4251 
Q 3091 3903 3091 3403 
Q 3091 3084 2923 2848 
Q 2756 2613 2416 2484 
Q 2838 2347 3058 2040 
Q 3278 1734 3278 1309 
Q 3278 722 2862 322 
Q 2447 -78 1769 -78 
Q 1091 -78 675 323 
Q 259 725 259 1325 
Q 259 1772 486 2073 
Q 713 2375 1131 2484 
z
M 1019 3438 
Q 1019 3113 1228 2906 
Q 1438 2700 1772 2700 
Q 2097 2700 2305 2904 
Q 2513 3109 2513 3406 
Q 2513 3716 2298 3927 
Q 2084 4138 1766 4138 
Q 1444 4138 1231 3931 
Q 1019 3725 1019 3438 
z
M 838 1322 
Q 838 1081 952 856 
Q 1066 631 1291 507 
Q 1516 384 1775 384 
Q 2178 384 2440 643 
Q 2703 903 2703 1303 
Q 2703 1709 2433 1975 
Q 2163 2241 1756 2241 
Q 1359 2241 1098 1978 
Q 838 1716 838 1322 
z
" transform="scale(0.015625)"/>
       </defs>
       <use xlink:href="#ArialMT-38"/>
       <use xlink:href="#ArialMT-30" x="55.615234"/>
      </g>
     </g>
    </g>
    <g id="ytick_6">
     <g id="line2d_13">
      <path d="M 180 127.873684 
L 687.272727 127.873684 
" clip-path="url(#p31b616bbdb)" style="fill: none; stroke: #ffffff; stroke-width: 0.8; stroke-linecap: round"/>
     </g>
     <g id="text_14">
      <!-- 100 -->
      <g style="fill: #262626" transform="translate(156.317187 131.45259)scale(0.1 -0.1)">
       <use xlink:href="#ArialMT-31"/>
       <use xlink:href="#ArialMT-30" x="55.615234"/>
       <use xlink:href="#ArialMT-30" x="111.230469"/>
      </g>
     </g>
    </g>
    <g id="text_15">
     <!-- No. of Pixels -->
     <g style="fill: #262626" transform="translate(150.329687 240.465625)rotate(-90)scale(0.1 -0.1)">
      <defs>
       <path id="ArialMT-4e" d="M 488 0 
L 488 4581 
L 1109 4581 
L 3516 984 
L 3516 4581 
L 4097 4581 
L 4097 0 
L 3475 0 
L 1069 3600 
L 1069 0 
L 488 0 
z
" transform="scale(0.015625)"/>
       <path id="ArialMT-6f" d="M 213 1659 
Q 213 2581 725 3025 
Q 1153 3394 1769 3394 
Q 2453 3394 2887 2945 
Q 3322 2497 3322 1706 
Q 3322 1066 3130 698 
Q 2938 331 2570 128 
Q 2203 -75 1769 -75 
Q 1072 -75 642 372 
Q 213 819 213 1659 
z
M 791 1659 
Q 791 1022 1069 705 
Q 1347 388 1769 388 
Q 2188 388 2466 706 
Q 2744 1025 2744 1678 
Q 2744 2294 2464 2611 
Q 2184 2928 1769 2928 
Q 1347 2928 1069 2612 
Q 791 2297 791 1659 
z
" transform="scale(0.015625)"/>
       <path id="ArialMT-2e" d="M 581 0 
L 581 641 
L 1222 641 
L 1222 0 
L 581 0 
z
" transform="scale(0.015625)"/>
       <path id="ArialMT-20" transform="scale(0.015625)"/>
       <path id="ArialMT-66" d="M 556 0 
L 556 2881 
L 59 2881 
L 59 3319 
L 556 3319 
L 556 3672 
Q 556 4006 616 4169 
Q 697 4388 901 4523 
Q 1106 4659 1475 4659 
Q 1713 4659 2000 4603 
L 1916 4113 
Q 1741 4144 1584 4144 
Q 1328 4144 1222 4034 
Q 1116 3925 1116 3625 
L 1116 3319 
L 1763 3319 
L 1763 2881 
L 1116 2881 
L 1116 0 
L 556 0 
z
" transform="scale(0.015625)"/>
       <path id="ArialMT-50" d="M 494 0 
L 494 4581 
L 2222 4581 
Q 2678 4581 2919 4538 
Q 3256 4481 3484 4323 
Q 3713 4166 3852 3881 
Q 3991 3597 3991 3256 
Q 3991 2672 3619 2267 
Q 3247 1863 2275 1863 
L 1100 1863 
L 1100 0 
L 494 0 
z
M 1100 2403 
L 2284 2403 
Q 2872 2403 3119 2622 
Q 3366 2841 3366 3238 
Q 3366 3525 3220 3729 
Q 3075 3934 2838 4000 
Q 2684 4041 2272 4041 
L 1100 4041 
L 1100 2403 
z
" transform="scale(0.015625)"/>
       <path id="ArialMT-78" d="M 47 0 
L 1259 1725 
L 138 3319 
L 841 3319 
L 1350 2541 
Q 1494 2319 1581 2169 
Q 1719 2375 1834 2534 
L 2394 3319 
L 3066 3319 
L 1919 1756 
L 3153 0 
L 2463 0 
L 1781 1031 
L 1600 1309 
L 728 0 
L 47 0 
z
" transform="scale(0.015625)"/>
       <path id="ArialMT-65" d="M 2694 1069 
L 3275 997 
Q 3138 488 2766 206 
Q 2394 -75 1816 -75 
Q 1088 -75 661 373 
Q 234 822 234 1631 
Q 234 2469 665 2931 
Q 1097 3394 1784 3394 
Q 2450 3394 2872 2941 
Q 3294 2488 3294 1666 
Q 3294 1616 3291 1516 
L 816 1516 
Q 847 969 1125 678 
Q 1403 388 1819 388 
Q 2128 388 2347 550 
Q 2566 713 2694 1069 
z
M 847 1978 
L 2700 1978 
Q 2663 2397 2488 2606 
Q 2219 2931 1791 2931 
Q 1403 2931 1139 2672 
Q 875 2413 847 1978 
z
" transform="scale(0.015625)"/>
       <path id="ArialMT-6c" d="M 409 0 
L 409 4581 
L 972 4581 
L 972 0 
L 409 0 
z
" transform="scale(0.015625)"/>
      </defs>
      <use xlink:href="#ArialMT-4e"/>
      <use xlink:href="#ArialMT-6f" x="72.216797"/>
      <use xlink:href="#ArialMT-2e" x="127.832031"/>
      <use xlink:href="#ArialMT-20" x="155.615234"/>
      <use xlink:href="#ArialMT-6f" x="183.398438"/>
      <use xlink:href="#ArialMT-66" x="239.013672"/>
      <use xlink:href="#ArialMT-20" x="266.796875"/>
      <use xlink:href="#ArialMT-50" x="294.580078"/>
      <use xlink:href="#ArialMT-69" x="361.279297"/>
      <use xlink:href="#ArialMT-78" x="383.496094"/>
      <use xlink:href="#ArialMT-65" x="433.496094"/>
      <use xlink:href="#ArialMT-6c" x="489.111328"/>
      <use xlink:href="#ArialMT-73" x="511.328125"/>
     </g>
    </g>
   </g>
   <g id="patch_3">
    <path d="M 203.057851 338.4 
L 249.173549 338.4 
L 249.173549 98.4 
L 203.057851 98.4 
z
" clip-path="url(#p31b616bbdb)" style="fill: #ffbe0b; stroke: #ffffff; stroke-linejoin: miter"/>
   </g>
   <g id="patch_4">
    <path d="M 249.173549 338.4 
L 295.289246 338.4 
L 295.289246 300.505263 
L 249.173549 300.505263 
z
" clip-path="url(#p31b616bbdb)" style="fill: #ffbe0b; stroke: #ffffff; stroke-linejoin: miter"/>
   </g>
   <g id="patch_5">
    <path d="M 295.289246 338.4 
L 341.404952 338.4 
L 341.404952 254.189474 
L 295.289246 254.189474 
z
" clip-path="url(#p31b616bbdb)" style="fill: #ffbe0b; stroke: #ffffff; stroke-linejoin: miter"/>
   </g>
   <g id="patch_6">
    <path d="M 341.40496 338.4 
L 387.52064 338.4 
L 387.52064 323.663158 
L 341.40496 323.663158 
z
" clip-path="url(#p31b616bbdb)" style="fill: #ffbe0b; stroke: #ffffff; stroke-linejoin: miter"/>
   </g>
   <g id="patch_7">
    <path d="M 387.52064 338.4 
L 433.636346 338.4 
L 433.636346 334.189474 
L 387.52064 334.189474 
z
" clip-path="url(#p31b616bbdb)" style="fill: #ffbe0b; stroke: #ffffff; stroke-linejoin: miter"/>
   </g>
   <g id="patch_8">
    <path d="M 433.636346 338.4 
L 479.752052 338.4 
L 479.752052 329.978947 
L 433.636346 329.978947 
z
" clip-path="url(#p31b616bbdb)" style="fill: #ffbe0b; stroke: #ffffff; stroke-linejoin: miter"/>
   </g>
   <g id="patch_9">
    <path d="M 479.75207 338.4 
L 525.867758 338.4 
L 525.867758 329.978947 
L 479.75207 329.978947 
z
" clip-path="url(#p31b616bbdb)" style="fill: #ffbe0b; stroke: #ffffff; stroke-linejoin: miter"/>
   </g>
   <g id="patch_10">
    <path d="M 525.867758 338.4 
L 571.983429 338.4 
L 571.983429 317.347368 
L 525.867758 317.347368 
z
" clip-path="url(#p31b616bbdb)" style="fill: #ffbe0b; stroke: #ffffff; stroke-linejoin: miter"/>
   </g>
   <g id="patch_11">
    <path d="M 571.983429 338.4 
L 618.099135 338.4 
L 618.099135 275.242105 
L 571.983429 275.242105 
z
" clip-path="url(#p31b616bbdb)" style="fill: #ffbe0b; stroke: #ffffff; stroke-linejoin: miter"/>
   </g>
   <g id="patch_12">
    <path d="M 618.09917 338.4 
L 664.214876 338.4 
L 664.214876 281.557895 
L 618.09917 281.557895 
z
" clip-path="url(#p31b616bbdb)" style="fill: #ffbe0b; stroke: #ffffff; stroke-linejoin: miter"/>
   </g>
   <g id="patch_13">
    <path d="M 180 338.4 
L 180 86.4 
" style="fill: none; stroke: #ffffff; stroke-width: 0.8; stroke-linejoin: miter; stroke-linecap: square"/>
   </g>
   <g id="patch_14">
    <path d="M 687.272727 338.4 
L 687.272727 86.4 
" style="fill: none; stroke: #ffffff; stroke-width: 0.8; stroke-linejoin: miter; stroke-linecap: square"/>
   </g>
   <g id="patch_15">
    <path d="M 180 338.4 
L 687.272727 338.4 
" style="fill: none; stroke: #ffffff; stroke-width: 0.8; stroke-linejoin: miter; stroke-linecap: square"/>
   </g>
   <g id="patch_16">
    <path d="M 180 86.4 
L 687.272727 86.4 
" style="fill: none; stroke: #ffffff; stroke-width: 0.8; stroke-linejoin: miter; stroke-linecap: square"/>
   </g>
   <g id="text_16">
    <!-- Image Histogram -->
    <g style="fill: #262626" transform="translate(387.956676 80.4)scale(0.12 -0.12)">
     <defs>
      <path id="ArialMT-49" d="M 597 0 
L 597 4581 
L 1203 4581 
L 1203 0 
L 597 0 
z
" transform="scale(0.015625)"/>
      <path id="ArialMT-6d" d="M 422 0 
L 422 3319 
L 925 3319 
L 925 2853 
Q 1081 3097 1340 3245 
Q 1600 3394 1931 3394 
Q 2300 3394 2536 3241 
Q 2772 3088 2869 2813 
Q 3263 3394 3894 3394 
Q 4388 3394 4653 3120 
Q 4919 2847 4919 2278 
L 4919 0 
L 4359 0 
L 4359 2091 
Q 4359 2428 4304 2576 
Q 4250 2725 4106 2815 
Q 3963 2906 3769 2906 
Q 3419 2906 3187 2673 
Q 2956 2441 2956 1928 
L 2956 0 
L 2394 0 
L 2394 2156 
Q 2394 2531 2256 2718 
Q 2119 2906 1806 2906 
Q 1569 2906 1367 2781 
Q 1166 2656 1075 2415 
Q 984 2175 984 1722 
L 984 0 
L 422 0 
z
" transform="scale(0.015625)"/>
      <path id="ArialMT-61" d="M 2588 409 
Q 2275 144 1986 34 
Q 1697 -75 1366 -75 
Q 819 -75 525 192 
Q 231 459 231 875 
Q 231 1119 342 1320 
Q 453 1522 633 1644 
Q 813 1766 1038 1828 
Q 1203 1872 1538 1913 
Q 2219 1994 2541 2106 
Q 2544 2222 2544 2253 
Q 2544 2597 2384 2738 
Q 2169 2928 1744 2928 
Q 1347 2928 1158 2789 
Q 969 2650 878 2297 
L 328 2372 
Q 403 2725 575 2942 
Q 747 3159 1072 3276 
Q 1397 3394 1825 3394 
Q 2250 3394 2515 3294 
Q 2781 3194 2906 3042 
Q 3031 2891 3081 2659 
Q 3109 2516 3109 2141 
L 3109 1391 
Q 3109 606 3145 398 
Q 3181 191 3288 0 
L 2700 0 
Q 2613 175 2588 409 
z
M 2541 1666 
Q 2234 1541 1622 1453 
Q 1275 1403 1131 1340 
Q 988 1278 909 1158 
Q 831 1038 831 891 
Q 831 666 1001 516 
Q 1172 366 1500 366 
Q 1825 366 2078 508 
Q 2331 650 2450 897 
Q 2541 1088 2541 1459 
L 2541 1666 
z
" transform="scale(0.015625)"/>
      <path id="ArialMT-67" d="M 319 -275 
L 866 -356 
Q 900 -609 1056 -725 
Q 1266 -881 1628 -881 
Q 2019 -881 2231 -725 
Q 2444 -569 2519 -288 
Q 2563 -116 2559 434 
Q 2191 0 1641 0 
Q 956 0 581 494 
Q 206 988 206 1678 
Q 206 2153 378 2554 
Q 550 2956 876 3175 
Q 1203 3394 1644 3394 
Q 2231 3394 2613 2919 
L 2613 3319 
L 3131 3319 
L 3131 450 
Q 3131 -325 2973 -648 
Q 2816 -972 2473 -1159 
Q 2131 -1347 1631 -1347 
Q 1038 -1347 672 -1080 
Q 306 -813 319 -275 
z
M 784 1719 
Q 784 1066 1043 766 
Q 1303 466 1694 466 
Q 2081 466 2343 764 
Q 2606 1063 2606 1700 
Q 2606 2309 2336 2618 
Q 2066 2928 1684 2928 
Q 1309 2928 1046 2623 
Q 784 2319 784 1719 
z
" transform="scale(0.015625)"/>
      <path id="ArialMT-48" d="M 513 0 
L 513 4581 
L 1119 4581 
L 1119 2700 
L 3500 2700 
L 3500 4581 
L 4106 4581 
L 4106 0 
L 3500 0 
L 3500 2159 
L 1119 2159 
L 1119 0 
L 513 0 
z
" transform="scale(0.015625)"/>
      <path id="ArialMT-74" d="M 1650 503 
L 1731 6 
Q 1494 -44 1306 -44 
Q 1000 -44 831 53 
Q 663 150 594 308 
Q 525 466 525 972 
L 525 2881 
L 113 2881 
L 113 3319 
L 525 3319 
L 525 4141 
L 1084 4478 
L 1084 3319 
L 1650 3319 
L 1650 2881 
L 1084 2881 
L 1084 941 
Q 1084 700 1114 631 
Q 1144 563 1211 522 
Q 1278 481 1403 481 
Q 1497 481 1650 503 
z
" transform="scale(0.015625)"/>
      <path id="ArialMT-72" d="M 416 0 
L 416 3319 
L 922 3319 
L 922 2816 
Q 1116 3169 1280 3281 
Q 1444 3394 1641 3394 
Q 1925 3394 2219 3213 
L 2025 2691 
Q 1819 2813 1613 2813 
Q 1428 2813 1281 2702 
Q 1134 2591 1072 2394 
Q 978 2094 978 1738 
L 978 0 
L 416 0 
z
" transform="scale(0.015625)"/>
     </defs>
     <use xlink:href="#ArialMT-49"/>
     <use xlink:href="#ArialMT-6d" x="27.783203"/>
     <use xlink:href="#ArialMT-61" x="111.083984"/>
     <use xlink:href="#ArialMT-67" x="166.699219"/>
     <use xlink:href="#ArialMT-65" x="222.314453"/>
     <use xlink:href="#ArialMT-20" x="277.929688"/>
     <use xlink:href="#ArialMT-48" x="305.712891"/>
     <use xlink:href="#ArialMT-69" x="377.929688"/>
     <use xlink:href="#ArialMT-73" x="400.146484"/>
     <use xlink:href="#ArialMT-74" x="450.146484"/>
     <use xlink:href="#ArialMT-6f" x="477.929688"/>
     <use xlink:href="#ArialMT-67" x="533.544922"/>
     <use xlink:href="#ArialMT-72" x="589.160156"/>
     <use xlink:href="#ArialMT-61" x="622.460938"/>
     <use xlink:href="#ArialMT-6d" x="678.076172"/>
    </g>
   </g>
  </g>
  <g id="axes_2">
   <g id="patch_17">
    <path d="M 788.727273 338.4 
L 1296 338.4 
L 1296 86.4 
L 788.727273 86.4 
z
" style="fill: #eaeaf2"/>
   </g>
   <g id="matplotlib.axis_3">
    <g id="xtick_8">
     <g id="line2d_14">
      <path d="M 811.785124 338.4 
L 811.785124 86.4 
" clip-path="url(#p6d07e0734e)" style="fill: none; stroke: #ffffff; stroke-width: 0.8; stroke-linecap: round"/>
     </g>
     <g id="text_17">
      <!-- 0 -->
      <g style="fill: #262626" transform="translate(809.004655 352.557812)scale(0.1 -0.1)">
       <use xlink:href="#ArialMT-30"/>
      </g>
     </g>
    </g>
    <g id="xtick_9">
     <g id="line2d_15">
      <path d="M 902.20807 338.4 
L 902.20807 86.4 
" clip-path="url(#p6d07e0734e)" style="fill: none; stroke: #ffffff; stroke-width: 0.8; stroke-linecap: round"/>
     </g>
     <g id="text_18">
      <!-- 50 -->
      <g style="fill: #262626" transform="translate(896.647133 352.557812)scale(0.1 -0.1)">
       <use xlink:href="#ArialMT-35"/>
       <use xlink:href="#ArialMT-30" x="55.615234"/>
      </g>
     </g>
    </g>
    <g id="xtick_10">
     <g id="line2d_16">
      <path d="M 992.631016 338.4 
L 992.631016 86.4 
" clip-path="url(#p6d07e0734e)" style="fill: none; stroke: #ffffff; stroke-width: 0.8; stroke-linecap: round"/>
     </g>
     <g id="text_19">
      <!-- 100 -->
      <g style="fill: #262626" transform="translate(984.28961 352.557812)scale(0.1 -0.1)">
       <use xlink:href="#ArialMT-31"/>
       <use xlink:href="#ArialMT-30" x="55.615234"/>
       <use xlink:href="#ArialMT-30" x="111.230469"/>
      </g>
     </g>
    </g>
    <g id="xtick_11">
     <g id="line2d_17">
      <path d="M 1083.053962 338.4 
L 1083.053962 86.4 
" clip-path="url(#p6d07e0734e)" style="fill: none; stroke: #ffffff; stroke-width: 0.8; stroke-linecap: round"/>
     </g>
     <g id="text_20">
      <!-- 150 -->
      <g style="fill: #262626" transform="translate(1074.712556 352.557812)scale(0.1 -0.1)">
       <use xlink:href="#ArialMT-31"/>
       <use xlink:href="#ArialMT-35" x="55.615234"/>
       <use xlink:href="#ArialMT-30" x="111.230469"/>
      </g>
     </g>
    </g>
    <g id="xtick_12">
     <g id="line2d_18">
      <path d="M 1173.476908 338.4 
L 1173.476908 86.4 
" clip-path="url(#p6d07e0734e)" style="fill: none; stroke: #ffffff; stroke-width: 0.8; stroke-linecap: round"/>
     </g>
     <g id="text_21">
      <!-- 200 -->
      <g style="fill: #262626" transform="translate(1165.135502 352.557812)scale(0.1 -0.1)">
       <use xlink:href="#ArialMT-32"/>
       <use xlink:href="#ArialMT-30" x="55.615234"/>
       <use xlink:href="#ArialMT-30" x="111.230469"/>
      </g>
     </g>
    </g>
    <g id="xtick_13">
     <g id="line2d_19">
      <path d="M 1263.899854 338.4 
L 1263.899854 86.4 
" clip-path="url(#p6d07e0734e)" style="fill: none; stroke: #ffffff; stroke-width: 0.8; stroke-linecap: round"/>
     </g>
     <g id="text_22">
      <!-- 250 -->
      <g style="fill: #262626" transform="translate(1255.558448 352.557812)scale(0.1 -0.1)">
       <use xlink:href="#ArialMT-32"/>
       <use xlink:href="#ArialMT-35" x="55.615234"/>
       <use xlink:href="#ArialMT-30" x="111.230469"/>
      </g>
     </g>
    </g>
    <g id="text_23">
     <!-- bins -->
     <g style="fill: #262626" transform="translate(1033.191761 365.703125)scale(0.1 -0.1)">
      <use xlink:href="#ArialMT-62"/>
      <use xlink:href="#ArialMT-69" x="55.615234"/>
      <use xlink:href="#ArialMT-6e" x="77.832031"/>
      <use xlink:href="#ArialMT-73" x="133.447266"/>
     </g>
    </g>
   </g>
   <g id="matplotlib.axis_4">
    <g id="ytick_7">
     <g id="line2d_20">
      <path d="M 788.727273 326.945455 
L 1296 326.945455 
" clip-path="url(#p6d07e0734e)" style="fill: none; stroke: #ffffff; stroke-width: 0.8; stroke-linecap: round"/>
     </g>
     <g id="text_24">
      <!-- 0 -->
      <g style="fill: #262626" transform="translate(776.166335 330.524361)scale(0.1 -0.1)">
       <use xlink:href="#ArialMT-30"/>
      </g>
     </g>
    </g>
    <g id="ytick_8">
     <g id="line2d_21">
      <path d="M 788.727273 291.570083 
L 1296 291.570083 
" clip-path="url(#p6d07e0734e)" style="fill: none; stroke: #ffffff; stroke-width: 0.8; stroke-linecap: round"/>
     </g>
     <g id="text_25">
      <!-- 500 -->
      <g style="fill: #262626" transform="translate(765.04446 295.148989)scale(0.1 -0.1)">
       <use xlink:href="#ArialMT-35"/>
       <use xlink:href="#ArialMT-30" x="55.615234"/>
       <use xlink:href="#ArialMT-30" x="111.230469"/>
      </g>
     </g>
    </g>
    <g id="ytick_9">
     <g id="line2d_22">
      <path d="M 788.727273 256.194711 
L 1296 256.194711 
" clip-path="url(#p6d07e0734e)" style="fill: none; stroke: #ffffff; stroke-width: 0.8; stroke-linecap: round"/>
     </g>
     <g id="text_26">
      <!-- 1000 -->
      <g style="fill: #262626" transform="translate(759.483523 259.773617)scale(0.1 -0.1)">
       <use xlink:href="#ArialMT-31"/>
       <use xlink:href="#ArialMT-30" x="55.615234"/>
       <use xlink:href="#ArialMT-30" x="111.230469"/>
       <use xlink:href="#ArialMT-30" x="166.845703"/>
      </g>
     </g>
    </g>
    <g id="ytick_10">
     <g id="line2d_23">
      <path d="M 788.727273 220.819339 
L 1296 220.819339 
" clip-path="url(#p6d07e0734e)" style="fill: none; stroke: #ffffff; stroke-width: 0.8; stroke-linecap: round"/>
     </g>
     <g id="text_27">
      <!-- 1500 -->
      <g style="fill: #262626" transform="translate(759.483523 224.398245)scale(0.1 -0.1)">
       <use xlink:href="#ArialMT-31"/>
       <use xlink:href="#ArialMT-35" x="55.615234"/>
       <use xlink:href="#ArialMT-30" x="111.230469"/>
       <use xlink:href="#ArialMT-30" x="166.845703"/>
      </g>
     </g>
    </g>
    <g id="ytick_11">
     <g id="line2d_24">
      <path d="M 788.727273 185.443967 
L 1296 185.443967 
" clip-path="url(#p6d07e0734e)" style="fill: none; stroke: #ffffff; stroke-width: 0.8; stroke-linecap: round"/>
     </g>
     <g id="text_28">
      <!-- 2000 -->
      <g style="fill: #262626" transform="translate(759.483523 189.022873)scale(0.1 -0.1)">
       <use xlink:href="#ArialMT-32"/>
       <use xlink:href="#ArialMT-30" x="55.615234"/>
       <use xlink:href="#ArialMT-30" x="111.230469"/>
       <use xlink:href="#ArialMT-30" x="166.845703"/>
      </g>
     </g>
    </g>
    <g id="ytick_12">
     <g id="line2d_25">
      <path d="M 788.727273 150.068595 
L 1296 150.068595 
" clip-path="url(#p6d07e0734e)" style="fill: none; stroke: #ffffff; stroke-width: 0.8; stroke-linecap: round"/>
     </g>
     <g id="text_29">
      <!-- 2500 -->
      <g style="fill: #262626" transform="translate(759.483523 153.647501)scale(0.1 -0.1)">
       <use xlink:href="#ArialMT-32"/>
       <use xlink:href="#ArialMT-35" x="55.615234"/>
       <use xlink:href="#ArialMT-30" x="111.230469"/>
       <use xlink:href="#ArialMT-30" x="166.845703"/>
      </g>
     </g>
    </g>
    <g id="ytick_13">
     <g id="line2d_26">
      <path d="M 788.727273 114.693223 
L 1296 114.693223 
" clip-path="url(#p6d07e0734e)" style="fill: none; stroke: #ffffff; stroke-width: 0.8; stroke-linecap: round"/>
     </g>
     <g id="text_30">
      <!-- 3000 -->
      <g style="fill: #262626" transform="translate(759.483523 118.272129)scale(0.1 -0.1)">
       <use xlink:href="#ArialMT-33"/>
       <use xlink:href="#ArialMT-30" x="55.615234"/>
       <use xlink:href="#ArialMT-30" x="111.230469"/>
       <use xlink:href="#ArialMT-30" x="166.845703"/>
      </g>
     </g>
    </g>
    <g id="text_31">
     <!-- No. of Pixels -->
     <g style="fill: #262626" transform="translate(753.496023 240.465625)rotate(-90)scale(0.1 -0.1)">
      <use xlink:href="#ArialMT-4e"/>
      <use xlink:href="#ArialMT-6f" x="72.216797"/>
      <use xlink:href="#ArialMT-2e" x="127.832031"/>
      <use xlink:href="#ArialMT-20" x="155.615234"/>
      <use xlink:href="#ArialMT-6f" x="183.398438"/>
      <use xlink:href="#ArialMT-66" x="239.013672"/>
      <use xlink:href="#ArialMT-20" x="266.796875"/>
      <use xlink:href="#ArialMT-50" x="294.580078"/>
      <use xlink:href="#ArialMT-69" x="361.279297"/>
      <use xlink:href="#ArialMT-78" x="383.496094"/>
      <use xlink:href="#ArialMT-65" x="433.496094"/>
      <use xlink:href="#ArialMT-6c" x="489.111328"/>
      <use xlink:href="#ArialMT-73" x="511.328125"/>
     </g>
    </g>
   </g>
   <g id="line2d_27">
    <path d="M 811.785124 326.945455 
L 824.444336 326.945455 
L 826.252795 326.450199 
L 828.061254 326.945455 
L 884.123481 326.945455 
L 885.93194 326.733202 
L 887.740399 326.803953 
L 889.548858 326.450199 
L 891.357316 325.954944 
L 893.165775 325.247437 
L 896.782693 322.205155 
L 898.591152 319.304374 
L 900.399611 317.252603 
L 902.20807 308.974766 
L 904.016529 302.394946 
L 907.633447 282.655489 
L 909.441906 271.406121 
L 911.250365 246.64336 
L 913.058824 237.658016 
L 914.867282 211.550991 
L 916.675741 202.707148 
L 918.4842 171.223067 
L 922.101118 149.078084 
L 923.909577 131.178146 
L 925.718036 118.726015 
L 927.526495 117.664754 
L 929.334954 120.282531 
L 931.143413 123.466315 
L 932.951872 121.273042 
L 934.760331 123.96157 
L 936.568789 123.678567 
L 938.377248 121.839048 
L 940.185707 111.650941 
L 941.994166 120.424033 
L 943.802625 111.792442 
L 945.611084 107.122893 
L 947.419543 97.854545 
L 949.228002 98.845056 
L 951.036461 104.788118 
L 952.84492 99.26956 
L 954.653379 101.321332 
L 956.461838 114.41022 
L 958.270297 112.5707 
L 960.078755 109.174664 
L 961.887214 114.127217 
L 963.695673 129.763131 
L 965.504132 126.437846 
L 967.312591 117.523252 
L 969.12105 117.381751 
L 970.929509 118.938267 
L 972.737968 120.990039 
L 974.546427 118.30151 
L 976.354886 107.122893 
L 978.163345 115.895985 
L 979.971804 120.211781 
L 981.780263 111.509439 
L 983.588721 113.49046 
L 985.39718 133.229917 
L 987.205639 127.003852 
L 989.014098 135.918446 
L 990.822557 127.569858 
L 992.631016 135.210938 
L 994.439475 141.720007 
L 996.247934 145.894301 
L 998.056393 130.470638 
L 999.864852 142.215262 
L 1001.673311 139.951238 
L 1003.48177 143.205772 
L 1005.290228 144.267034 
L 1007.098687 141.437004 
L 1008.907146 145.82355 
L 1010.715605 147.380066 
L 1012.524064 145.965051 
L 1014.332523 147.875321 
L 1016.140982 148.865832 
L 1017.949441 138.748475 
L 1019.7579 140.09274 
L 1023.374818 124.103071 
L 1025.183277 123.749318 
L 1026.991736 110.023673 
L 1028.800194 120.919288 
L 1030.608653 113.914964 
L 1032.417112 127.923612 
L 1034.225571 121.13154 
L 1036.03403 130.258386 
L 1037.842489 132.734662 
L 1039.650948 148.158324 
L 1041.459407 178.581144 
L 1043.267866 171.152316 
L 1045.076325 186.575978 
L 1046.884784 195.773575 
L 1048.693243 202.707148 
L 1050.501702 220.890089 
L 1052.31016 232.776214 
L 1055.927078 245.865102 
L 1057.735537 254.28444 
L 1059.543996 255.133449 
L 1061.352455 265.109304 
L 1063.160914 262.916031 
L 1064.969373 267.58558 
L 1066.777832 265.67531 
L 1068.586291 269.778853 
L 1070.39475 266.878073 
L 1072.203209 270.274109 
L 1074.011667 265.392307 
L 1075.820126 270.981616 
L 1077.628585 270.274109 
L 1079.437044 270.627862 
L 1081.245503 272.467382 
L 1083.053962 273.387141 
L 1084.862421 264.048043 
L 1086.67088 267.656331 
L 1088.479339 265.887562 
L 1090.287798 262.279275 
L 1092.096257 265.533809 
L 1093.904716 267.231827 
L 1095.713175 264.6848 
L 1097.521633 258.529485 
L 1099.330092 258.175731 
L 1101.138551 267.727082 
L 1102.94701 261.571767 
L 1104.755469 263.199034 
L 1106.563928 261.571767 
L 1108.372387 268.222337 
L 1110.180846 269.708103 
L 1111.989305 269.000595 
L 1113.797764 263.482037 
L 1115.606223 270.557112 
L 1117.414682 270.203358 
L 1119.22314 270.557112 
L 1121.031599 271.476871 
L 1122.840058 274.1654 
L 1124.648517 275.934168 
L 1126.456976 275.651165 
L 1128.265435 279.330204 
L 1130.073894 279.259453 
L 1131.882353 282.443237 
L 1133.690812 282.160234 
L 1135.499271 281.594228 
L 1137.30773 282.230984 
L 1139.116189 280.815969 
L 1140.924648 285.910023 
L 1142.733106 284.565759 
L 1144.541565 286.263777 
L 1146.350024 285.697771 
L 1148.158483 285.910023 
L 1149.966942 290.791824 
L 1151.775401 289.801314 
L 1153.58386 293.621854 
L 1155.392319 297.159391 
L 1157.200778 299.140412 
L 1159.009237 305.932484 
L 1160.817696 303.597709 
L 1164.434614 311.451042 
L 1166.243072 313.432062 
L 1168.051531 313.998068 
L 1169.85999 315.200831 
L 1171.668449 316.191341 
L 1173.476908 319.233623 
L 1175.285367 319.304374 
L 1177.093826 321.639149 
L 1178.902285 320.507137 
L 1180.710744 322.205155 
L 1182.519203 322.205155 
L 1186.136121 322.983413 
L 1187.944579 324.327677 
L 1189.753038 324.822932 
L 1193.369956 325.318187 
L 1195.178415 325.60119 
L 1196.986874 325.247437 
L 1198.795333 325.671941 
L 1200.603792 326.379449 
L 1202.412251 326.450199 
L 1206.029169 326.803953 
L 1211.454545 326.945455 
L 1213.263004 326.945455 
L 1215.071463 326.733202 
L 1216.879922 326.874704 
L 1272.942149 326.945455 
L 1272.942149 326.945455 
" clip-path="url(#p6d07e0734e)" style="fill: none; stroke: #fb5607; stroke-width: 1.5; stroke-linecap: round"/>
   </g>
   <g id="patch_18">
    <path d="M 788.727273 338.4 
L 788.727273 86.4 
" style="fill: none; stroke: #ffffff; stroke-width: 0.8; stroke-linejoin: miter; stroke-linecap: square"/>
   </g>
   <g id="patch_19">
    <path d="M 1296 338.4 
L 1296 86.4 
" style="fill: none; stroke: #ffffff; stroke-width: 0.8; stroke-linejoin: miter; stroke-linecap: square"/>
   </g>
   <g id="patch_20">
    <path d="M 788.727273 338.4 
L 1296 338.4 
" style="fill: none; stroke: #ffffff; stroke-width: 0.8; stroke-linejoin: miter; stroke-linecap: square"/>
   </g>
   <g id="patch_21">
    <path d="M 788.727273 86.4 
L 1296 86.4 
" style="fill: none; stroke: #ffffff; stroke-width: 0.8; stroke-linejoin: miter; stroke-linecap: square"/>
   </g>
   <g id="text_32">
    <!-- Image Plot -->
    <g style="fill: #262626" transform="translate(1013.683636 80.4)scale(0.12 -0.12)">
     <use xlink:href="#ArialMT-49"/>
     <use xlink:href="#ArialMT-6d" x="27.783203"/>
     <use xlink:href="#ArialMT-61" x="111.083984"/>
     <use xlink:href="#ArialMT-67" x="166.699219"/>
     <use xlink:href="#ArialMT-65" x="222.314453"/>
     <use xlink:href="#ArialMT-20" x="277.929688"/>
     <use xlink:href="#ArialMT-50" x="305.712891"/>
     <use xlink:href="#ArialMT-6c" x="372.412109"/>
     <use xlink:href="#ArialMT-6f" x="394.628906"/>
     <use xlink:href="#ArialMT-74" x="450.244141"/>
    </g>
   </g>
  </g>
  <g id="axes_3">
   <g id="patch_22">
    <path d="M 180 640.8 
L 687.272727 640.8 
L 687.272727 388.8 
L 180 388.8 
z
" style="fill: #eaeaf2"/>
   </g>
   <g id="matplotlib.axis_5">
    <g id="xtick_14">
     <g id="line2d_28">
      <path d="M 203.057851 640.8 
L 203.057851 388.8 
" clip-path="url(#pdec282e777)" style="fill: none; stroke: #ffffff; stroke-width: 0.8; stroke-linecap: round"/>
     </g>
     <g id="text_33">
      <!-- 0 -->
      <g style="fill: #262626" transform="translate(200.277382 654.957813)scale(0.1 -0.1)">
       <use xlink:href="#ArialMT-30"/>
      </g>
     </g>
    </g>
    <g id="xtick_15">
     <g id="line2d_29">
      <path d="M 274.444388 640.8 
L 274.444388 388.8 
" clip-path="url(#pdec282e777)" style="fill: none; stroke: #ffffff; stroke-width: 0.8; stroke-linecap: round"/>
     </g>
     <g id="text_34">
      <!-- 1000 -->
      <g style="fill: #262626" transform="translate(263.322513 654.957813)scale(0.1 -0.1)">
       <use xlink:href="#ArialMT-31"/>
       <use xlink:href="#ArialMT-30" x="55.615234"/>
       <use xlink:href="#ArialMT-30" x="111.230469"/>
       <use xlink:href="#ArialMT-30" x="166.845703"/>
      </g>
     </g>
    </g>
    <g id="xtick_16">
     <g id="line2d_30">
      <path d="M 345.830924 640.8 
L 345.830924 388.8 
" clip-path="url(#pdec282e777)" style="fill: none; stroke: #ffffff; stroke-width: 0.8; stroke-linecap: round"/>
     </g>
     <g id="text_35">
      <!-- 2000 -->
      <g style="fill: #262626" transform="translate(334.709049 654.957813)scale(0.1 -0.1)">
       <use xlink:href="#ArialMT-32"/>
       <use xlink:href="#ArialMT-30" x="55.615234"/>
       <use xlink:href="#ArialMT-30" x="111.230469"/>
       <use xlink:href="#ArialMT-30" x="166.845703"/>
      </g>
     </g>
    </g>
    <g id="xtick_17">
     <g id="line2d_31">
      <path d="M 417.21746 640.8 
L 417.21746 388.8 
" clip-path="url(#pdec282e777)" style="fill: none; stroke: #ffffff; stroke-width: 0.8; stroke-linecap: round"/>
     </g>
     <g id="text_36">
      <!-- 3000 -->
      <g style="fill: #262626" transform="translate(406.095585 654.957813)scale(0.1 -0.1)">
       <use xlink:href="#ArialMT-33"/>
       <use xlink:href="#ArialMT-30" x="55.615234"/>
       <use xlink:href="#ArialMT-30" x="111.230469"/>
       <use xlink:href="#ArialMT-30" x="166.845703"/>
      </g>
     </g>
    </g>
    <g id="xtick_18">
     <g id="line2d_32">
      <path d="M 488.603997 640.8 
L 488.603997 388.8 
" clip-path="url(#pdec282e777)" style="fill: none; stroke: #ffffff; stroke-width: 0.8; stroke-linecap: round"/>
     </g>
     <g id="text_37">
      <!-- 4000 -->
      <g style="fill: #262626" transform="translate(477.482122 654.957813)scale(0.1 -0.1)">
       <use xlink:href="#ArialMT-34"/>
       <use xlink:href="#ArialMT-30" x="55.615234"/>
       <use xlink:href="#ArialMT-30" x="111.230469"/>
       <use xlink:href="#ArialMT-30" x="166.845703"/>
      </g>
     </g>
    </g>
    <g id="xtick_19">
     <g id="line2d_33">
      <path d="M 559.990533 640.8 
L 559.990533 388.8 
" clip-path="url(#pdec282e777)" style="fill: none; stroke: #ffffff; stroke-width: 0.8; stroke-linecap: round"/>
     </g>
     <g id="text_38">
      <!-- 5000 -->
      <g style="fill: #262626" transform="translate(548.868658 654.957813)scale(0.1 -0.1)">
       <use xlink:href="#ArialMT-35"/>
       <use xlink:href="#ArialMT-30" x="55.615234"/>
       <use xlink:href="#ArialMT-30" x="111.230469"/>
       <use xlink:href="#ArialMT-30" x="166.845703"/>
      </g>
     </g>
    </g>
    <g id="xtick_20">
     <g id="line2d_34">
      <path d="M 631.377069 640.8 
L 631.377069 388.8 
" clip-path="url(#pdec282e777)" style="fill: none; stroke: #ffffff; stroke-width: 0.8; stroke-linecap: round"/>
     </g>
     <g id="text_39">
      <!-- 6000 -->
      <g style="fill: #262626" transform="translate(620.255194 654.957813)scale(0.1 -0.1)">
       <use xlink:href="#ArialMT-36"/>
       <use xlink:href="#ArialMT-30" x="55.615234"/>
       <use xlink:href="#ArialMT-30" x="111.230469"/>
       <use xlink:href="#ArialMT-30" x="166.845703"/>
      </g>
     </g>
    </g>
    <g id="text_40">
     <!-- bins -->
     <g style="fill: #262626" transform="translate(424.464489 668.103125)scale(0.1 -0.1)">
      <use xlink:href="#ArialMT-62"/>
      <use xlink:href="#ArialMT-69" x="55.615234"/>
      <use xlink:href="#ArialMT-6e" x="77.832031"/>
      <use xlink:href="#ArialMT-73" x="133.447266"/>
     </g>
    </g>
   </g>
   <g id="matplotlib.axis_6">
    <g id="ytick_14">
     <g id="line2d_35">
      <path d="M 180 640.8 
L 687.272727 640.8 
" clip-path="url(#pdec282e777)" style="fill: none; stroke: #ffffff; stroke-width: 0.8; stroke-linecap: round"/>
     </g>
     <g id="text_41">
      <!-- 0 -->
      <g style="fill: #262626" transform="translate(167.439063 644.378906)scale(0.1 -0.1)">
       <use xlink:href="#ArialMT-30"/>
      </g>
     </g>
    </g>
    <g id="ytick_15">
     <g id="line2d_36">
      <path d="M 180 603.3 
L 687.272727 603.3 
" clip-path="url(#pdec282e777)" style="fill: none; stroke: #ffffff; stroke-width: 0.8; stroke-linecap: round"/>
     </g>
     <g id="text_42">
      <!-- 20 -->
      <g style="fill: #262626" transform="translate(161.878125 606.878906)scale(0.1 -0.1)">
       <use xlink:href="#ArialMT-32"/>
       <use xlink:href="#ArialMT-30" x="55.615234"/>
      </g>
     </g>
    </g>
    <g id="ytick_16">
     <g id="line2d_37">
      <path d="M 180 565.8 
L 687.272727 565.8 
" clip-path="url(#pdec282e777)" style="fill: none; stroke: #ffffff; stroke-width: 0.8; stroke-linecap: round"/>
     </g>
     <g id="text_43">
      <!-- 40 -->
      <g style="fill: #262626" transform="translate(161.878125 569.378906)scale(0.1 -0.1)">
       <use xlink:href="#ArialMT-34"/>
       <use xlink:href="#ArialMT-30" x="55.615234"/>
      </g>
     </g>
    </g>
    <g id="ytick_17">
     <g id="line2d_38">
      <path d="M 180 528.3 
L 687.272727 528.3 
" clip-path="url(#pdec282e777)" style="fill: none; stroke: #ffffff; stroke-width: 0.8; stroke-linecap: round"/>
     </g>
     <g id="text_44">
      <!-- 60 -->
      <g style="fill: #262626" transform="translate(161.878125 531.878906)scale(0.1 -0.1)">
       <use xlink:href="#ArialMT-36"/>
       <use xlink:href="#ArialMT-30" x="55.615234"/>
      </g>
     </g>
    </g>
    <g id="ytick_18">
     <g id="line2d_39">
      <path d="M 180 490.8 
L 687.272727 490.8 
" clip-path="url(#pdec282e777)" style="fill: none; stroke: #ffffff; stroke-width: 0.8; stroke-linecap: round"/>
     </g>
     <g id="text_45">
      <!-- 80 -->
      <g style="fill: #262626" transform="translate(161.878125 494.378906)scale(0.1 -0.1)">
       <use xlink:href="#ArialMT-38"/>
       <use xlink:href="#ArialMT-30" x="55.615234"/>
      </g>
     </g>
    </g>
    <g id="ytick_19">
     <g id="line2d_40">
      <path d="M 180 453.3 
L 687.272727 453.3 
" clip-path="url(#pdec282e777)" style="fill: none; stroke: #ffffff; stroke-width: 0.8; stroke-linecap: round"/>
     </g>
     <g id="text_46">
      <!-- 100 -->
      <g style="fill: #262626" transform="translate(156.317187 456.878906)scale(0.1 -0.1)">
       <use xlink:href="#ArialMT-31"/>
       <use xlink:href="#ArialMT-30" x="55.615234"/>
       <use xlink:href="#ArialMT-30" x="111.230469"/>
      </g>
     </g>
    </g>
    <g id="ytick_20">
     <g id="line2d_41">
      <path d="M 180 415.8 
L 687.272727 415.8 
" clip-path="url(#pdec282e777)" style="fill: none; stroke: #ffffff; stroke-width: 0.8; stroke-linecap: round"/>
     </g>
     <g id="text_47">
      <!-- 120 -->
      <g style="fill: #262626" transform="translate(156.317187 419.378906)scale(0.1 -0.1)">
       <use xlink:href="#ArialMT-31"/>
       <use xlink:href="#ArialMT-32" x="55.615234"/>
       <use xlink:href="#ArialMT-30" x="111.230469"/>
      </g>
     </g>
    </g>
    <g id="text_48">
     <!-- No. of Pixels -->
     <g style="fill: #262626" transform="translate(150.329687 542.865625)rotate(-90)scale(0.1 -0.1)">
      <use xlink:href="#ArialMT-4e"/>
      <use xlink:href="#ArialMT-6f" x="72.216797"/>
      <use xlink:href="#ArialMT-2e" x="127.832031"/>
      <use xlink:href="#ArialMT-20" x="155.615234"/>
      <use xlink:href="#ArialMT-6f" x="183.398438"/>
      <use xlink:href="#ArialMT-66" x="239.013672"/>
      <use xlink:href="#ArialMT-20" x="266.796875"/>
      <use xlink:href="#ArialMT-50" x="294.580078"/>
      <use xlink:href="#ArialMT-69" x="361.279297"/>
      <use xlink:href="#ArialMT-78" x="383.496094"/>
      <use xlink:href="#ArialMT-65" x="433.496094"/>
      <use xlink:href="#ArialMT-6c" x="489.111328"/>
      <use xlink:href="#ArialMT-73" x="511.328125"/>
     </g>
    </g>
   </g>
   <g id="patch_23">
    <path d="M 203.057851 640.8 
L 249.173554 640.8 
L 249.173554 400.8 
L 203.057851 400.8 
z
" clip-path="url(#pdec282e777)" style="fill: #8338ec; stroke: #ffffff; stroke-linejoin: miter"/>
   </g>
   <g id="patch_24">
    <path d="M 249.173554 640.8 
L 295.289256 640.8 
L 295.289256 582.675 
L 249.173554 582.675 
z
" clip-path="url(#pdec282e777)" style="fill: #8338ec; stroke: #ffffff; stroke-linejoin: miter"/>
   </g>
   <g id="patch_25">
    <path d="M 295.289256 640.8 
L 341.404959 640.8 
L 341.404959 552.675 
L 295.289256 552.675 
z
" clip-path="url(#pdec282e777)" style="fill: #8338ec; stroke: #ffffff; stroke-linejoin: miter"/>
   </g>
   <g id="patch_26">
    <path d="M 341.404959 640.8 
L 387.520661 640.8 
L 387.520661 584.55 
L 341.404959 584.55 
z
" clip-path="url(#pdec282e777)" style="fill: #8338ec; stroke: #ffffff; stroke-linejoin: miter"/>
   </g>
   <g id="patch_27">
    <path d="M 387.520661 640.8 
L 433.636364 640.8 
L 433.636364 623.925 
L 387.520661 623.925 
z
" clip-path="url(#pdec282e777)" style="fill: #8338ec; stroke: #ffffff; stroke-linejoin: miter"/>
   </g>
   <g id="patch_28">
    <path d="M 433.636364 640.8 
L 479.752066 640.8 
L 479.752066 638.925 
L 433.636364 638.925 
z
" clip-path="url(#pdec282e777)" style="fill: #8338ec; stroke: #ffffff; stroke-linejoin: miter"/>
   </g>
   <g id="patch_29">
    <path d="M 479.752066 640.8 
L 525.867769 640.8 
L 525.867769 635.175 
L 479.752066 635.175 
z
" clip-path="url(#pdec282e777)" style="fill: #8338ec; stroke: #ffffff; stroke-linejoin: miter"/>
   </g>
   <g id="patch_30">
    <path d="M 525.867769 640.8 
L 571.983471 640.8 
L 571.983471 633.3 
L 525.867769 633.3 
z
" clip-path="url(#pdec282e777)" style="fill: #8338ec; stroke: #ffffff; stroke-linejoin: miter"/>
   </g>
   <g id="patch_31">
    <path d="M 571.983471 640.8 
L 618.099174 640.8 
L 618.099174 638.925 
L 571.983471 638.925 
z
" clip-path="url(#pdec282e777)" style="fill: #8338ec; stroke: #ffffff; stroke-linejoin: miter"/>
   </g>
   <g id="patch_32">
    <path d="M 618.099174 640.8 
L 664.214876 640.8 
L 664.214876 637.05 
L 618.099174 637.05 
z
" clip-path="url(#pdec282e777)" style="fill: #8338ec; stroke: #ffffff; stroke-linejoin: miter"/>
   </g>
   <g id="patch_33">
    <path d="M 180 640.8 
L 180 388.8 
" style="fill: none; stroke: #ffffff; stroke-width: 0.8; stroke-linejoin: miter; stroke-linecap: square"/>
   </g>
   <g id="patch_34">
    <path d="M 687.272727 640.8 
L 687.272727 388.8 
" style="fill: none; stroke: #ffffff; stroke-width: 0.8; stroke-linejoin: miter; stroke-linecap: square"/>
   </g>
   <g id="patch_35">
    <path d="M 180 640.8 
L 687.272727 640.8 
" style="fill: none; stroke: #ffffff; stroke-width: 0.8; stroke-linejoin: miter; stroke-linecap: square"/>
   </g>
   <g id="patch_36">
    <path d="M 180 388.8 
L 687.272727 388.8 
" style="fill: none; stroke: #ffffff; stroke-width: 0.8; stroke-linejoin: miter; stroke-linecap: square"/>
   </g>
   <g id="text_49">
    <!-- Image Histogram B/W -->
    <g style="fill: #262626" transform="translate(374.957301 382.8)scale(0.12 -0.12)">
     <defs>
      <path id="ArialMT-42" d="M 469 0 
L 469 4581 
L 2188 4581 
Q 2713 4581 3030 4442 
Q 3347 4303 3526 4014 
Q 3706 3725 3706 3409 
Q 3706 3116 3547 2856 
Q 3388 2597 3066 2438 
Q 3481 2316 3704 2022 
Q 3928 1728 3928 1328 
Q 3928 1006 3792 729 
Q 3656 453 3456 303 
Q 3256 153 2954 76 
Q 2653 0 2216 0 
L 469 0 
z
M 1075 2656 
L 2066 2656 
Q 2469 2656 2644 2709 
Q 2875 2778 2992 2937 
Q 3109 3097 3109 3338 
Q 3109 3566 3000 3739 
Q 2891 3913 2687 3977 
Q 2484 4041 1991 4041 
L 1075 4041 
L 1075 2656 
z
M 1075 541 
L 2216 541 
Q 2509 541 2628 563 
Q 2838 600 2978 687 
Q 3119 775 3209 942 
Q 3300 1109 3300 1328 
Q 3300 1584 3169 1773 
Q 3038 1963 2805 2039 
Q 2572 2116 2134 2116 
L 1075 2116 
L 1075 541 
z
" transform="scale(0.015625)"/>
      <path id="ArialMT-2f" d="M 0 -78 
L 1328 4659 
L 1778 4659 
L 453 -78 
L 0 -78 
z
" transform="scale(0.015625)"/>
      <path id="ArialMT-57" d="M 1294 0 
L 78 4581 
L 700 4581 
L 1397 1578 
Q 1509 1106 1591 641 
Q 1766 1375 1797 1488 
L 2669 4581 
L 3400 4581 
L 4056 2263 
Q 4303 1400 4413 641 
Q 4500 1075 4641 1638 
L 5359 4581 
L 5969 4581 
L 4713 0 
L 4128 0 
L 3163 3491 
Q 3041 3928 3019 4028 
Q 2947 3713 2884 3491 
L 1913 0 
L 1294 0 
z
" transform="scale(0.015625)"/>
     </defs>
     <use xlink:href="#ArialMT-49"/>
     <use xlink:href="#ArialMT-6d" x="27.783203"/>
     <use xlink:href="#ArialMT-61" x="111.083984"/>
     <use xlink:href="#ArialMT-67" x="166.699219"/>
     <use xlink:href="#ArialMT-65" x="222.314453"/>
     <use xlink:href="#ArialMT-20" x="277.929688"/>
     <use xlink:href="#ArialMT-48" x="305.712891"/>
     <use xlink:href="#ArialMT-69" x="377.929688"/>
     <use xlink:href="#ArialMT-73" x="400.146484"/>
     <use xlink:href="#ArialMT-74" x="450.146484"/>
     <use xlink:href="#ArialMT-6f" x="477.929688"/>
     <use xlink:href="#ArialMT-67" x="533.544922"/>
     <use xlink:href="#ArialMT-72" x="589.160156"/>
     <use xlink:href="#ArialMT-61" x="622.460938"/>
     <use xlink:href="#ArialMT-6d" x="678.076172"/>
     <use xlink:href="#ArialMT-20" x="761.376953"/>
     <use xlink:href="#ArialMT-42" x="789.160156"/>
     <use xlink:href="#ArialMT-2f" x="855.859375"/>
     <use xlink:href="#ArialMT-57" x="883.642578"/>
    </g>
   </g>
  </g>
  <g id="axes_4">
   <g id="patch_37">
    <path d="M 788.727273 640.8 
L 1296 640.8 
L 1296 388.8 
L 788.727273 388.8 
z
" style="fill: #eaeaf2"/>
   </g>
   <g id="matplotlib.axis_7">
    <g id="xtick_21">
     <g id="line2d_42">
      <path d="M 811.785124 640.8 
L 811.785124 388.8 
" clip-path="url(#p82bacc671c)" style="fill: none; stroke: #ffffff; stroke-width: 0.8; stroke-linecap: round"/>
     </g>
     <g id="text_50">
      <!-- 0 -->
      <g style="fill: #262626" transform="translate(809.004655 654.957813)scale(0.1 -0.1)">
       <use xlink:href="#ArialMT-30"/>
      </g>
     </g>
    </g>
    <g id="xtick_22">
     <g id="line2d_43">
      <path d="M 902.20807 640.8 
L 902.20807 388.8 
" clip-path="url(#p82bacc671c)" style="fill: none; stroke: #ffffff; stroke-width: 0.8; stroke-linecap: round"/>
     </g>
     <g id="text_51">
      <!-- 50 -->
      <g style="fill: #262626" transform="translate(896.647133 654.957813)scale(0.1 -0.1)">
       <use xlink:href="#ArialMT-35"/>
       <use xlink:href="#ArialMT-30" x="55.615234"/>
      </g>
     </g>
    </g>
    <g id="xtick_23">
     <g id="line2d_44">
      <path d="M 992.631016 640.8 
L 992.631016 388.8 
" clip-path="url(#p82bacc671c)" style="fill: none; stroke: #ffffff; stroke-width: 0.8; stroke-linecap: round"/>
     </g>
     <g id="text_52">
      <!-- 100 -->
      <g style="fill: #262626" transform="translate(984.28961 654.957813)scale(0.1 -0.1)">
       <use xlink:href="#ArialMT-31"/>
       <use xlink:href="#ArialMT-30" x="55.615234"/>
       <use xlink:href="#ArialMT-30" x="111.230469"/>
      </g>
     </g>
    </g>
    <g id="xtick_24">
     <g id="line2d_45">
      <path d="M 1083.053962 640.8 
L 1083.053962 388.8 
" clip-path="url(#p82bacc671c)" style="fill: none; stroke: #ffffff; stroke-width: 0.8; stroke-linecap: round"/>
     </g>
     <g id="text_53">
      <!-- 150 -->
      <g style="fill: #262626" transform="translate(1074.712556 654.957813)scale(0.1 -0.1)">
       <use xlink:href="#ArialMT-31"/>
       <use xlink:href="#ArialMT-35" x="55.615234"/>
       <use xlink:href="#ArialMT-30" x="111.230469"/>
      </g>
     </g>
    </g>
    <g id="xtick_25">
     <g id="line2d_46">
      <path d="M 1173.476908 640.8 
L 1173.476908 388.8 
" clip-path="url(#p82bacc671c)" style="fill: none; stroke: #ffffff; stroke-width: 0.8; stroke-linecap: round"/>
     </g>
     <g id="text_54">
      <!-- 200 -->
      <g style="fill: #262626" transform="translate(1165.135502 654.957813)scale(0.1 -0.1)">
       <use xlink:href="#ArialMT-32"/>
       <use xlink:href="#ArialMT-30" x="55.615234"/>
       <use xlink:href="#ArialMT-30" x="111.230469"/>
      </g>
     </g>
    </g>
    <g id="xtick_26">
     <g id="line2d_47">
      <path d="M 1263.899854 640.8 
L 1263.899854 388.8 
" clip-path="url(#p82bacc671c)" style="fill: none; stroke: #ffffff; stroke-width: 0.8; stroke-linecap: round"/>
     </g>
     <g id="text_55">
      <!-- 250 -->
      <g style="fill: #262626" transform="translate(1255.558448 654.957813)scale(0.1 -0.1)">
       <use xlink:href="#ArialMT-32"/>
       <use xlink:href="#ArialMT-35" x="55.615234"/>
       <use xlink:href="#ArialMT-30" x="111.230469"/>
      </g>
     </g>
    </g>
    <g id="text_56">
     <!-- bins -->
     <g style="fill: #262626" transform="translate(1033.191761 668.103125)scale(0.1 -0.1)">
      <use xlink:href="#ArialMT-62"/>
      <use xlink:href="#ArialMT-69" x="55.615234"/>
      <use xlink:href="#ArialMT-6e" x="77.832031"/>
      <use xlink:href="#ArialMT-73" x="133.447266"/>
     </g>
    </g>
   </g>
   <g id="matplotlib.axis_8">
    <g id="ytick_21">
     <g id="line2d_48">
      <path d="M 788.727273 629.345455 
L 1296 629.345455 
" clip-path="url(#p82bacc671c)" style="fill: none; stroke: #ffffff; stroke-width: 0.8; stroke-linecap: round"/>
     </g>
     <g id="text_57">
      <!-- 0 -->
      <g style="fill: #262626" transform="translate(776.166335 632.924361)scale(0.1 -0.1)">
       <use xlink:href="#ArialMT-30"/>
      </g>
     </g>
    </g>
    <g id="ytick_22">
     <g id="line2d_49">
      <path d="M 788.727273 593.882466 
L 1296 593.882466 
" clip-path="url(#p82bacc671c)" style="fill: none; stroke: #ffffff; stroke-width: 0.8; stroke-linecap: round"/>
     </g>
     <g id="text_58">
      <!-- 1000 -->
      <g style="fill: #262626" transform="translate(759.483523 597.461372)scale(0.1 -0.1)">
       <use xlink:href="#ArialMT-31"/>
       <use xlink:href="#ArialMT-30" x="55.615234"/>
       <use xlink:href="#ArialMT-30" x="111.230469"/>
       <use xlink:href="#ArialMT-30" x="166.845703"/>
      </g>
     </g>
    </g>
    <g id="ytick_23">
     <g id="line2d_50">
      <path d="M 788.727273 558.419476 
L 1296 558.419476 
" clip-path="url(#p82bacc671c)" style="fill: none; stroke: #ffffff; stroke-width: 0.8; stroke-linecap: round"/>
     </g>
     <g id="text_59">
      <!-- 2000 -->
      <g style="fill: #262626" transform="translate(759.483523 561.998383)scale(0.1 -0.1)">
       <use xlink:href="#ArialMT-32"/>
       <use xlink:href="#ArialMT-30" x="55.615234"/>
       <use xlink:href="#ArialMT-30" x="111.230469"/>
       <use xlink:href="#ArialMT-30" x="166.845703"/>
      </g>
     </g>
    </g>
    <g id="ytick_24">
     <g id="line2d_51">
      <path d="M 788.727273 522.956487 
L 1296 522.956487 
" clip-path="url(#p82bacc671c)" style="fill: none; stroke: #ffffff; stroke-width: 0.8; stroke-linecap: round"/>
     </g>
     <g id="text_60">
      <!-- 3000 -->
      <g style="fill: #262626" transform="translate(759.483523 526.535394)scale(0.1 -0.1)">
       <use xlink:href="#ArialMT-33"/>
       <use xlink:href="#ArialMT-30" x="55.615234"/>
       <use xlink:href="#ArialMT-30" x="111.230469"/>
       <use xlink:href="#ArialMT-30" x="166.845703"/>
      </g>
     </g>
    </g>
    <g id="ytick_25">
     <g id="line2d_52">
      <path d="M 788.727273 487.493498 
L 1296 487.493498 
" clip-path="url(#p82bacc671c)" style="fill: none; stroke: #ffffff; stroke-width: 0.8; stroke-linecap: round"/>
     </g>
     <g id="text_61">
      <!-- 4000 -->
      <g style="fill: #262626" transform="translate(759.483523 491.072405)scale(0.1 -0.1)">
       <use xlink:href="#ArialMT-34"/>
       <use xlink:href="#ArialMT-30" x="55.615234"/>
       <use xlink:href="#ArialMT-30" x="111.230469"/>
       <use xlink:href="#ArialMT-30" x="166.845703"/>
      </g>
     </g>
    </g>
    <g id="ytick_26">
     <g id="line2d_53">
      <path d="M 788.727273 452.030509 
L 1296 452.030509 
" clip-path="url(#p82bacc671c)" style="fill: none; stroke: #ffffff; stroke-width: 0.8; stroke-linecap: round"/>
     </g>
     <g id="text_62">
      <!-- 5000 -->
      <g style="fill: #262626" transform="translate(759.483523 455.609416)scale(0.1 -0.1)">
       <use xlink:href="#ArialMT-35"/>
       <use xlink:href="#ArialMT-30" x="55.615234"/>
       <use xlink:href="#ArialMT-30" x="111.230469"/>
       <use xlink:href="#ArialMT-30" x="166.845703"/>
      </g>
     </g>
    </g>
    <g id="ytick_27">
     <g id="line2d_54">
      <path d="M 788.727273 416.56752 
L 1296 416.56752 
" clip-path="url(#p82bacc671c)" style="fill: none; stroke: #ffffff; stroke-width: 0.8; stroke-linecap: round"/>
     </g>
     <g id="text_63">
      <!-- 6000 -->
      <g style="fill: #262626" transform="translate(759.483523 420.146427)scale(0.1 -0.1)">
       <use xlink:href="#ArialMT-36"/>
       <use xlink:href="#ArialMT-30" x="55.615234"/>
       <use xlink:href="#ArialMT-30" x="111.230469"/>
       <use xlink:href="#ArialMT-30" x="166.845703"/>
      </g>
     </g>
    </g>
    <g id="text_64">
     <!-- No. of Pixels -->
     <g style="fill: #262626" transform="translate(753.496023 542.865625)rotate(-90)scale(0.1 -0.1)">
      <use xlink:href="#ArialMT-4e"/>
      <use xlink:href="#ArialMT-6f" x="72.216797"/>
      <use xlink:href="#ArialMT-2e" x="127.832031"/>
      <use xlink:href="#ArialMT-20" x="155.615234"/>
      <use xlink:href="#ArialMT-6f" x="183.398438"/>
      <use xlink:href="#ArialMT-66" x="239.013672"/>
      <use xlink:href="#ArialMT-20" x="266.796875"/>
      <use xlink:href="#ArialMT-50" x="294.580078"/>
      <use xlink:href="#ArialMT-69" x="361.279297"/>
      <use xlink:href="#ArialMT-78" x="383.496094"/>
      <use xlink:href="#ArialMT-65" x="433.496094"/>
      <use xlink:href="#ArialMT-6c" x="489.111328"/>
      <use xlink:href="#ArialMT-73" x="511.328125"/>
     </g>
    </g>
   </g>
   <g id="line2d_55">
    <path d="M 811.785124 629.345455 
L 880.506563 629.345455 
L 882.315022 627.74962 
L 884.123481 629.345455 
L 887.740399 629.345455 
L 889.548858 615.585815 
L 891.357316 629.345455 
L 893.165775 629.345455 
L 894.974234 587.818294 
L 896.782693 629.345455 
L 900.399611 629.345455 
L 902.20807 550.936786 
L 904.016529 629.345455 
L 905.824988 629.345455 
L 907.633447 502.281565 
L 909.441906 629.345455 
L 911.250365 629.345455 
L 913.058824 435.291979 
L 914.867282 629.345455 
L 916.675741 629.345455 
L 918.4842 400.254545 
L 920.292659 629.345455 
L 922.101118 419.333634 
L 923.909577 629.345455 
L 925.718036 629.345455 
L 927.526495 448.342359 
L 929.334954 629.345455 
L 931.143413 475.968027 
L 932.951872 629.345455 
L 934.760331 519.410189 
L 936.568789 629.345455 
L 938.377248 541.432705 
L 940.185707 629.345455 
L 941.994166 555.121419 
L 943.802625 629.345455 
L 945.611084 567.994484 
L 947.419543 629.345455 
L 949.228002 573.810414 
L 951.036461 629.345455 
L 952.84492 577.250324 
L 954.653379 629.345455 
L 956.461838 580.512919 
L 958.270297 629.345455 
L 960.078755 581.647734 
L 961.887214 629.345455 
L 963.695673 582.002364 
L 965.504132 580.867549 
L 967.312591 629.345455 
L 969.12105 579.129862 
L 970.929509 629.345455 
L 972.737968 576.895694 
L 974.546427 577.285787 
L 976.354886 629.345455 
L 978.163345 577.392176 
L 979.971804 578.349676 
L 981.780263 629.345455 
L 983.588721 582.250605 
L 985.39718 578.597917 
L 987.205639 629.345455 
L 989.014098 577.392176 
L 990.822557 576.009119 
L 992.631016 629.345455 
L 994.439475 575.370785 
L 998.056393 572.427357 
L 999.864852 629.345455 
L 1001.673311 569.980411 
L 1003.48177 572.46282 
L 1005.290228 567.604391 
L 1007.098687 629.345455 
L 1008.907146 566.434112 
L 1010.715605 557.674754 
L 1012.524064 544.305207 
L 1014.332523 537.212609 
L 1016.140982 629.345455 
L 1017.949441 534.552885 
L 1019.7579 537.567239 
L 1021.566359 544.127892 
L 1023.374818 553.95114 
L 1025.183277 557.461976 
L 1026.991736 567.994484 
L 1028.800194 569.909485 
L 1030.608653 629.345455 
L 1032.417112 574.23597 
L 1034.225571 575.370785 
L 1036.03403 575.796341 
L 1037.842489 575.122544 
L 1039.650948 573.349395 
L 1041.459407 574.874303 
L 1043.267866 572.498283 
L 1045.076325 574.661525 
L 1046.884784 568.384576 
L 1048.693243 565.689389 
L 1050.501702 563.703462 
L 1052.31016 565.653926 
L 1054.118619 561.291979 
L 1055.927078 561.398368 
L 1057.735537 557.639291 
L 1059.543996 551.397805 
L 1061.352455 543.915114 
L 1063.160914 535.368534 
L 1064.969373 536.219645 
L 1066.777832 536.113256 
L 1068.586291 534.127329 
L 1070.39475 543.844188 
L 1072.203209 472.067098 
L 1074.011667 559.128736 
L 1075.820126 560.901886 
L 1077.628585 561.079201 
L 1079.437044 560.582719 
L 1081.245503 556.362623 
L 1083.053962 550.014748 
L 1084.862421 458.378384 
L 1086.67088 543.844188 
L 1088.479339 540.475204 
L 1090.287798 543.844188 
L 1092.096257 540.439741 
L 1093.904716 465.258204 
L 1095.713175 549.908359 
L 1097.521633 548.596229 
L 1099.330092 546.149282 
L 1101.138551 462.95311 
L 1102.94701 545.936504 
L 1104.755469 550.582156 
L 1106.563928 548.560766 
L 1108.372387 481.322938 
L 1110.180846 565.583 
L 1111.989305 568.029947 
L 1113.797764 526.928342 
L 1115.606223 582.676161 
L 1117.414682 583.775514 
L 1119.22314 550.546693 
L 1121.031599 591.541908 
L 1122.840058 592.641261 
L 1124.648517 560.015311 
L 1126.456976 593.45691 
L 1128.265435 562.568646 
L 1130.073894 595.974782 
L 1131.882353 593.953392 
L 1133.690812 559.518829 
L 1135.499271 594.237095 
L 1137.30773 559.164199 
L 1139.116189 594.910892 
L 1140.924648 564.944666 
L 1142.733106 599.698396 
L 1144.541565 576.080045 
L 1146.350024 606.259049 
L 1148.158483 590.442556 
L 1149.966942 610.266366 
L 1151.775401 593.173206 
L 1153.58386 612.074979 
L 1155.392319 597.925246 
L 1157.200778 613.103406 
L 1159.009237 592.605798 
L 1160.817696 610.479144 
L 1162.626155 590.584408 
L 1164.434614 588.740332 
L 1166.243072 608.244976 
L 1168.051531 585.832367 
L 1169.85999 607.074697 
L 1171.668449 587.640979 
L 1173.476908 589.30774 
L 1175.285367 608.244976 
L 1177.093826 590.407093 
L 1178.902285 593.563299 
L 1180.710744 610.656459 
L 1182.519203 593.917929 
L 1184.327662 591.541908 
L 1186.136121 589.485055 
L 1187.944579 607.500253 
L 1189.753038 585.052181 
L 1191.561497 585.5132 
L 1193.369956 608.138587 
L 1195.178415 588.95311 
L 1196.986874 588.740332 
L 1198.795333 595.762004 
L 1200.603792 599.733859 
L 1202.412251 618.032761 
L 1204.22071 609.23794 
L 1206.029169 613.316184 
L 1207.837628 614.770166 
L 1209.646087 616.436927 
L 1211.454545 618.84841 
L 1213.263004 624.30971 
L 1215.071463 621.366282 
L 1216.879922 621.791838 
L 1218.688381 624.628877 
L 1220.49684 626.011934 
L 1222.305299 627.253138 
L 1224.113758 627.359527 
L 1229.539135 628.848973 
L 1233.156053 629.132677 
L 1234.964511 629.061751 
L 1236.77297 629.345455 
L 1242.198347 629.309992 
L 1247.623724 629.345455 
L 1249.432183 629.274529 
L 1253.049101 629.345455 
L 1254.85756 629.274529 
L 1258.474477 629.345455 
L 1272.942149 629.345455 
L 1272.942149 629.345455 
" clip-path="url(#p82bacc671c)" style="fill: none; stroke: #3a86ff; stroke-width: 1.5; stroke-linecap: round"/>
   </g>
   <g id="patch_38">
    <path d="M 788.727273 640.8 
L 788.727273 388.8 
" style="fill: none; stroke: #ffffff; stroke-width: 0.8; stroke-linejoin: miter; stroke-linecap: square"/>
   </g>
   <g id="patch_39">
    <path d="M 1296 640.8 
L 1296 388.8 
" style="fill: none; stroke: #ffffff; stroke-width: 0.8; stroke-linejoin: miter; stroke-linecap: square"/>
   </g>
   <g id="patch_40">
    <path d="M 788.727273 640.8 
L 1296 640.8 
" style="fill: none; stroke: #ffffff; stroke-width: 0.8; stroke-linejoin: miter; stroke-linecap: square"/>
   </g>
   <g id="patch_41">
    <path d="M 788.727273 388.8 
L 1296 388.8 
" style="fill: none; stroke: #ffffff; stroke-width: 0.8; stroke-linejoin: miter; stroke-linecap: square"/>
   </g>
   <g id="text_65">
    <!-- Image Plot B/W -->
    <g style="fill: #262626" transform="translate(1000.684261 382.8)scale(0.12 -0.12)">
     <use xlink:href="#ArialMT-49"/>
     <use xlink:href="#ArialMT-6d" x="27.783203"/>
     <use xlink:href="#ArialMT-61" x="111.083984"/>
     <use xlink:href="#ArialMT-67" x="166.699219"/>
     <use xlink:href="#ArialMT-65" x="222.314453"/>
     <use xlink:href="#ArialMT-20" x="277.929688"/>
     <use xlink:href="#ArialMT-50" x="305.712891"/>
     <use xlink:href="#ArialMT-6c" x="372.412109"/>
     <use xlink:href="#ArialMT-6f" x="394.628906"/>
     <use xlink:href="#ArialMT-74" x="450.244141"/>
     <use xlink:href="#ArialMT-20" x="478.027344"/>
     <use xlink:href="#ArialMT-42" x="505.810547"/>
     <use xlink:href="#ArialMT-2f" x="572.509766"/>
     <use xlink:href="#ArialMT-57" x="600.292969"/>
    </g>
   </g>
  </g>
 </g>
 <defs>
  <clipPath id="p31b616bbdb">
   <rect x="180" y="86.4" width="507.272727" height="252"/>
  </clipPath>
  <clipPath id="p6d07e0734e">
   <rect x="788.727273" y="86.4" width="507.272727" height="252"/>
  </clipPath>
  <clipPath id="pdec282e777">
   <rect x="180" y="388.8" width="507.272727" height="252"/>
  </clipPath>
  <clipPath id="p82bacc671c">
   <rect x="788.727273" y="388.8" width="507.272727" height="252"/>
  </clipPath>
 </defs>
</svg>
